<?xml version="1.0" standalone="no"?><!DOCTYPE svg PUBLIC "-//W3C//DTD SVG 1.1//EN" "http://www.w3.org/Graphics/SVG/1.1/DTD/svg11.dtd"><svg t="1634208571254" class="icon" viewBox="0 0 1024 1024" version="1.1" xmlns="http://www.w3.org/2000/svg" p-id="2723" xmlns:xlink="http://www.w3.org/1999/xlink" width="200" height="200"><defs><style type="text/css"></style></defs><path d="M512 1024c282.784 0 512-229.216 512-512S794.784 0 512 0 0 229.216 0 512s229.216 512 512 512z m0-928c229.76 0 416 186.24 416 416s-186.24 416-416 416S96 741.76 96 512 282.24 96 512 96z m0 502.752c115.936 0 226.24-30.816 320-84.928-14.56 178.432-153.12 318.144-320 318.144s-305.408-139.872-320-318.304a640.864 640.864 0 0 0 320 85.056zM256 352c0-53.024 28.64-96 64-96s64 42.976 64 96-28.64 96-64 96-64-42.976-64-96z m384 0c0-53.024 28.64-96 64-96s64 42.976 64 96-28.64 96-64 96-64-42.976-64-96z" p-id="2724"></path></svg>